{"glyphs":{"0":{"ha":1381,"x_min":0,"x_max":1329,"o":"m 381 0 q 233 30 301 0 q 112 112 164 60 q 30 233 60 164 q 0 381 0 301 q 30 529 0 460 q 112 650 60 599 q 233 731 164 701 q 381 761 301 761 l 949 761 q 1097 731 1028 761 q 1218 649 1167 701 q 1299 528 1269 597 q 1329 381 1329 460 q 1299 233 1329 301 q 1218 112 1269 164 q 1097 30 1167 60 q 949 0 1028 0 l 381 0 m 381 446 q 334 427 353 446 q 315 381 315 408 q 334 334 315 353 q 381 315 353 315 l 949 315 q 995 334 976 315 q 1014 381 1014 353 q 995 427 1014 408 q 949 446 976 446 l 381 446 m 949 167 q 1032 183 993 167 q 1100 229 1071 200 q 1146 297 1129 258 q 1163 381 1163 336 q 1146 464 1163 425 q 1100 532 1129 503 q 1032 578 1071 561 q 949 594 993 594 l 381 594 q 297 578 336 594 q 229 532 258 561 q 183 464 200 503 q 167 381 167 425 q 183 297 167 336 q 229 229 200 258 q 297 183 258 200 q 381 167 336 167 l 949 167 z "},"1":{"ha":365,"x_min":0,"x_max":274,"o":"m 107 499 q 76 574 107 543 q 0 606 44 606 l 0 772 q 107 751 57 772 q 194 692 157 729 q 252 606 231 656 q 274 499 274 556 l 274 0 l 107 0 l 107 499 z "},"2":{"ha":1176,"x_min":0,"x_max":1115,"o":"m 42 761 l 906 761 q 1032 718 982 761 q 1099 615 1082 675 q 1097 496 1115 557 q 1018 394 1079 435 q 981 374 997 379 q 940 365 964 369 l 179 231 q 165 213 168 224 q 166 191 163 201 q 178 173 169 181 q 201 165 188 165 l 1092 165 l 1092 0 l 201 0 q 123 16 160 0 q 59 59 86 32 q 16 123 32 86 q 0 201 0 160 q 9 259 0 231 q 34 312 18 288 q 72 356 50 336 q 122 385 94 375 q 135 389 129 388 q 149 392 142 390 l 926 531 q 940 549 938 538 q 940 570 943 560 q 928 588 938 581 q 906 596 919 596 l 42 596 l 42 761 z "},"3":{"ha":1214,"x_min":0,"x_max":1143,"o":"m 1089 381 q 1128 313 1114 350 q 1143 232 1143 275 q 1125 142 1143 183 q 1075 68 1107 100 q 1001 18 1043 36 q 910 0 958 0 l 0 0 l 0 167 l 910 167 q 956 185 938 167 q 975 232 975 204 q 956 278 975 260 q 910 297 938 297 l 0 297 l 0 464 l 910 464 q 956 483 938 464 q 975 529 975 501 q 956 576 975 557 q 910 594 938 594 l 0 594 l 0 761 l 910 761 q 1001 743 958 761 q 1075 693 1043 725 q 1125 619 1107 661 q 1143 529 1143 576 q 1128 449 1143 486 q 1089 381 1114 411 z "},"4":{"ha":1219,"x_min":-4,"x_max":1157,"o":"m 1157 0 l 990 0 l 990 278 l 54 278 q 22 288 36 278 q 3 317 8 299 q 2 350 -4 333 q 24 378 8 367 l 550 746 l 838 746 l 407 444 l 990 444 l 990 746 l 1157 746 l 1157 0 z "},"5":{"ha":1214,"x_min":0,"x_max":1160,"o":"m 0 0 l 0 167 l 928 167 q 974 185 956 167 q 993 232 993 204 q 974 278 993 260 q 928 297 956 297 l 167 297 l 113 297 l 0 297 l 0 761 l 1075 761 l 1075 594 l 167 594 l 167 464 l 928 464 q 1017 446 975 464 q 1092 396 1060 428 q 1142 322 1124 364 q 1160 232 1160 279 q 1142 142 1160 183 q 1092 68 1124 100 q 1017 18 1060 36 q 928 0 975 0 l 0 0 z "},"6":{"ha":1268,"x_min":0,"x_max":1215,"o":"m 982 167 q 1028 185 1010 167 q 1047 232 1047 204 q 1028 278 1047 260 q 982 297 1010 297 l 167 297 l 167 274 q 198 198 167 229 q 274 167 229 167 l 982 167 m 274 0 q 167 22 217 0 q 80 80 117 43 q 22 167 43 117 q 0 274 0 217 l 0 488 q 22 594 0 544 q 80 681 43 644 q 167 740 117 718 q 274 761 217 761 l 1129 761 l 1129 594 l 274 594 q 198 563 229 594 q 167 488 167 532 l 167 464 l 982 464 q 1073 446 1031 464 q 1147 396 1115 428 q 1197 322 1179 364 q 1215 232 1215 279 q 1197 142 1215 183 q 1147 68 1179 100 q 1073 18 1115 36 q 982 0 1031 0 l 274 0 z "},"7":{"ha":1074,"x_min":0,"x_max":1001,"o":"m 313 0 l 79 0 l 676 597 l 0 597 l 0 764 l 944 764 q 976 754 963 764 q 995 731 989 744 q 999 700 1001 717 q 983 671 996 683 l 313 0 z "},"8":{"ha":1157,"x_min":0,"x_max":1114,"o":"m 1060 381 q 1099 313 1085 350 q 1114 232 1114 275 q 1096 142 1114 183 q 1046 68 1078 100 q 972 18 1014 36 q 881 0 929 0 l 232 0 q 142 18 183 0 q 68 68 100 36 q 18 142 36 100 q 0 232 0 183 q 14 313 0 275 q 53 381 28 350 q 14 449 28 411 q 0 529 0 486 q 18 619 0 576 q 68 693 36 661 q 142 743 100 725 q 232 761 183 761 l 881 761 q 972 743 929 761 q 1046 693 1014 725 q 1096 619 1078 661 q 1114 529 1114 576 q 1099 449 1114 486 q 1060 381 1085 411 m 881 464 q 927 483 908 464 q 946 529 946 501 q 927 576 946 557 q 881 594 908 594 l 232 594 q 185 576 204 594 q 167 529 167 557 q 185 483 167 501 q 232 464 204 464 l 881 464 m 881 167 q 927 185 908 167 q 946 232 946 204 q 927 278 946 260 q 881 297 908 297 l 232 297 q 185 278 204 297 q 167 232 167 260 q 185 185 167 204 q 232 167 204 167 l 881 167 z "},"9":{"ha":1278,"x_min":0,"x_max":1215,"o":"m 232 594 q 185 576 204 594 q 167 529 167 557 q 185 483 167 501 q 232 464 204 464 l 1047 464 l 1047 488 q 1016 563 1047 532 q 940 594 985 594 l 232 594 m 940 761 q 1047 740 997 761 q 1135 681 1097 718 q 1194 594 1172 644 q 1215 488 1215 544 l 1215 274 q 1194 167 1215 217 q 1135 80 1172 117 q 1047 22 1097 43 q 940 0 997 0 l 85 0 l 85 167 l 940 167 q 1016 198 985 167 q 1047 274 1047 229 l 1047 297 l 232 297 q 142 315 183 297 q 68 365 100 333 q 18 439 36 397 q 0 529 0 481 q 18 619 0 576 q 68 693 36 661 q 142 743 100 725 q 232 761 183 761 l 940 761 z "}," ":{"ha":694,"x_min":0,"x_max":0,"o":""},"A":{"ha":1160,"x_min":0,"x_max":1078,"o":"m 274 765 l 804 765 q 911 744 861 765 q 998 685 961 722 q 1056 597 1035 647 q 1078 490 1078 547 l 1078 0 l 911 0 l 911 183 l 167 183 l 167 0 l 0 0 l 0 490 q 22 597 0 547 q 80 685 43 647 q 167 744 117 722 q 274 765 217 765 m 167 351 l 911 351 l 911 490 q 880 566 911 535 q 804 597 849 597 l 274 597 q 198 566 229 597 q 167 490 167 535 l 167 351 z "},"B":{"ha":1197,"x_min":0,"x_max":1147,"o":"m 1089 381 q 1141 258 1135 325 q 1121 135 1147 192 q 1040 39 1094 78 q 911 0 986 0 l 0 0 l 0 761 l 911 761 q 1040 722 986 761 q 1121 626 1094 683 q 1141 503 1147 569 q 1089 381 1135 436 m 167 167 l 911 167 q 959 187 943 167 q 975 232 975 207 q 959 277 975 257 q 911 297 943 297 l 167 297 l 167 167 m 167 464 l 911 464 q 959 484 943 464 q 975 529 975 504 q 959 574 975 554 q 911 594 943 594 l 167 594 l 167 464 z "},"C":{"ha":1186,"x_min":0,"x_max":1129,"o":"m 1129 167 l 1129 0 l 274 0 q 167 22 217 0 q 80 80 117 43 q 22 167 43 117 q 0 274 0 217 l 0 488 q 22 594 0 544 q 80 682 43 644 q 167 741 117 719 q 274 763 217 763 l 1129 761 l 1129 594 l 274 594 q 198 563 229 594 q 167 488 167 532 l 167 274 q 198 198 167 229 q 274 167 229 167 l 1129 167 z "},"D":{"ha":1193,"x_min":0,"x_max":1129,"o":"m 856 167 q 931 198 900 167 q 963 274 963 229 l 963 488 q 931 563 963 532 q 856 594 900 594 l 167 594 l 167 167 l 856 167 m 1129 274 q 1108 167 1129 217 q 1049 80 1086 117 q 963 22 1013 43 q 856 0 913 0 l 0 0 l 0 761 l 856 763 q 963 741 913 763 q 1049 682 1013 719 q 1108 594 1086 644 q 1129 488 1129 544 l 1129 274 z "},"E":{"ha":1182,"x_min":0,"x_max":1129,"o":"m 1129 167 l 1129 0 l 274 0 q 167 22 217 0 q 80 80 117 43 q 22 167 43 117 q 0 274 0 217 l 0 488 q 22 594 0 544 q 80 682 43 644 q 167 741 117 719 q 274 763 217 763 l 1129 761 l 1129 594 l 274 594 q 198 563 229 594 q 167 488 167 532 l 167 465 l 1078 465 l 1078 297 l 167 297 l 167 274 q 198 198 167 229 q 274 167 229 167 l 1129 167 z "},"^":{"ha":832,"x_min":0,"x_max":760,"o":"m 0 353 l 188 688 q 272 772 219 743 q 380 800 324 800 q 488 772 436 800 q 571 688 539 743 l 760 353 l 571 353 l 428 607 q 406 628 419 621 q 379 636 393 636 q 353 628 365 636 q 332 607 340 621 l 189 353 l 0 353 z "},"F":{"ha":972,"x_min":0,"x_max":914,"o":"m 167 0 l 0 0 l 0 488 q 22 594 0 544 q 80 681 43 644 q 167 740 117 718 q 274 761 217 761 l 914 761 l 914 594 l 274 594 q 198 563 229 594 q 167 488 167 532 l 167 381 l 914 381 l 914 214 l 167 214 l 167 0 z "},"G":{"ha":1236,"x_min":0,"x_max":1190,"o":"m 875 167 l 972 296 q 620 297 794 296 q 268 297 446 297 l 268 465 q 673 465 471 465 q 1078 464 875 464 q 1140 444 1114 464 q 1178 397 1165 425 q 1188 335 1190 368 q 1164 274 1185 301 l 957 0 l 274 0 q 167 22 217 0 q 80 80 117 43 q 22 167 43 117 q 0 274 0 217 l 0 488 q 22 594 0 544 q 80 682 43 644 q 167 741 117 719 q 274 763 217 763 l 1129 763 l 1129 594 l 274 594 q 198 563 229 594 q 167 488 167 532 l 167 274 q 198 198 167 229 q 274 167 229 167 l 875 167 z "},"H":{"ha":1182,"x_min":0,"x_max":1113,"o":"m 167 460 l 944 460 l 944 761 l 1113 761 l 1113 0 l 944 0 l 944 293 l 167 293 l 167 0 l 0 0 l 0 761 l 167 761 l 167 460 z "},"I":{"ha":253,"x_min":0,"x_max":167,"o":"m 167 0 l 0 0 l 0 761 l 167 761 l 167 0 z "},"J":{"ha":667,"x_min":0,"x_max":582,"o":"m 308 167 q 384 198 353 167 q 415 274 415 229 l 415 761 l 582 761 l 582 274 q 560 167 582 217 q 502 80 539 117 q 415 22 465 43 q 308 0 365 0 l 0 0 l 0 167 l 308 167 z "},"K":{"ha":1165,"x_min":0,"x_max":1106,"o":"m 167 464 l 574 464 l 872 761 l 1106 761 l 725 381 l 1106 0 l 872 0 l 574 299 l 167 299 l 167 0 l 0 0 l 0 761 l 167 761 l 167 464 z "},"L":{"ha":999,"x_min":0,"x_max":907,"o":"m 907 167 l 907 0 l 274 0 q 167 22 217 0 q 80 80 117 43 q 22 167 43 117 q 0 274 0 217 l 0 761 l 167 761 l 167 274 q 198 198 167 229 q 274 167 229 167 l 907 167 z "},"M":{"ha":1461,"x_min":0,"x_max":1386,"o":"m 0 0 l 0 672 q 21 738 0 710 q 72 776 42 765 q 135 781 101 788 q 194 746 169 775 l 693 171 l 1192 746 q 1251 781 1217 775 q 1315 776 1285 788 q 1365 738 1344 765 q 1386 672 1386 710 l 1386 0 l 1221 0 l 1221 529 l 776 17 q 738 -12 760 -3 q 692 -22 715 -22 q 648 -12 669 -22 q 610 17 626 -3 l 165 529 l 165 0 l 0 0 z "},"N":{"ha":1113,"x_min":0,"x_max":1025,"o":"m 1025 761 l 1025 93 q 1007 33 1025 58 q 962 -6 989 7 q 903 -17 935 -19 q 844 7 871 -15 l 165 556 l 165 0 l 0 0 l 0 668 q 18 729 0 703 q 63 768 36 756 q 122 778 90 781 q 179 754 153 776 l 860 207 l 860 761 l 1025 761 z "},"O":{"ha":1360,"x_min":-1,"x_max":1329,"o":"m 379 0 q 231 30 300 0 q 110 112 163 60 q 28 233 58 164 q -1 381 -1 301 q 28 529 -1 460 q 110 650 58 599 q 231 731 163 701 q 379 761 300 761 l 947 761 q 1096 731 1026 761 q 1217 650 1165 701 q 1299 529 1269 599 q 1329 381 1329 460 q 1299 233 1329 301 q 1217 112 1269 164 q 1096 30 1165 60 q 947 0 1026 0 l 379 0 m 947 167 q 1031 183 992 167 q 1099 229 1069 200 q 1144 297 1128 258 q 1161 381 1161 336 q 1144 464 1161 425 q 1099 532 1128 503 q 1031 578 1069 561 q 947 594 992 594 l 379 594 q 296 578 335 594 q 228 532 257 561 q 182 464 199 503 q 165 381 165 425 q 182 297 165 336 q 228 229 199 258 q 296 183 257 200 q 379 167 335 167 l 947 167 z "},"P":{"ha":1188,"x_min":0,"x_max":1129,"o":"m 856 292 q 931 322 900 292 q 963 397 963 353 l 963 488 q 931 563 963 532 q 856 594 900 594 l 167 594 l 167 292 l 856 292 m 1129 397 q 1108 291 1129 340 q 1049 204 1086 242 q 963 145 1013 167 q 856 124 913 124 l 167 124 l 167 0 l 0 0 l 0 761 l 856 763 q 963 741 913 763 q 1049 682 1013 719 q 1108 594 1086 644 q 1129 488 1129 544 l 1129 397 z "},"Q":{"ha":1381,"x_min":0,"x_max":1331,"o":"m 949 167 q 1032 183 993 167 q 1100 229 1071 200 q 1146 297 1129 258 q 1163 381 1163 336 q 1146 464 1163 425 q 1100 532 1129 503 q 1032 578 1071 561 q 949 594 993 594 l 381 594 q 297 578 336 594 q 229 532 258 561 q 183 464 200 503 q 167 381 167 425 q 183 297 167 336 q 229 229 200 258 q 297 183 258 200 q 381 167 336 167 l 576 167 q 481 0 507 96 l 381 0 q 233 30 301 0 q 112 112 164 60 q 30 233 60 164 q 0 381 0 301 q 30 529 0 460 q 112 650 60 599 q 233 731 164 701 q 381 761 301 761 l 949 761 q 1097 731 1028 761 q 1219 650 1167 701 q 1301 529 1271 599 q 1331 381 1331 460 q 1301 233 1331 301 q 1219 112 1271 164 q 1097 30 1167 60 q 949 0 1028 0 l 864 0 q 788 -31 819 0 q 757 -107 757 -62 l 590 -107 q 612 0 590 -50 q 670 87 633 50 q 757 145 707 124 q 864 167 807 167 l 949 167 z "},"R":{"ha":1165,"x_min":0,"x_max":1129,"o":"m 353 381 l 856 381 q 931 412 900 381 q 963 488 963 443 q 931 563 963 532 q 856 594 900 594 l 167 594 l 167 0 l 0 0 l 0 761 l 856 763 q 963 741 913 763 q 1049 682 1013 719 q 1108 594 1086 644 q 1129 488 1129 544 q 1108 381 1129 431 q 1049 294 1086 331 q 963 235 1013 257 q 856 214 913 214 l 758 214 l 1121 0 l 797 0 l 325 279 q 301 306 307 289 q 300 340 296 324 q 318 369 304 357 q 353 381 332 381 z "},"S":{"ha":1128,"x_min":0,"x_max":1075,"o":"m 0 165 l 614 165 l 339 507 q 305 590 308 546 q 320 673 301 635 q 376 737 339 711 q 463 763 413 763 l 1075 763 l 1075 597 l 478 597 l 751 256 q 785 172 782 217 q 771 90 789 128 q 716 26 753 51 q 629 0 679 0 l 0 0 l 0 165 z "},"T":{"ha":1053,"x_min":0,"x_max":986,"o":"m 0 761 l 986 761 l 986 594 l 585 594 l 585 0 l 401 0 l 401 594 l 0 594 l 0 761 z "},"U":{"ha":1157,"x_min":0,"x_max":1078,"o":"m 0 764 l 167 764 l 167 274 q 198 198 167 229 q 274 167 229 167 l 804 167 q 879 198 849 167 q 910 274 910 229 l 910 764 l 1078 764 l 1078 274 q 1056 167 1078 217 q 997 80 1035 117 q 910 22 960 43 q 804 0 860 0 l 274 0 q 167 22 217 0 q 80 80 117 43 q 22 167 43 117 q 0 274 0 217 l 0 764 z "},"V":{"ha":1188,"x_min":0,"x_max":1150,"o":"m 189 761 l 526 160 q 575 131 543 132 q 624 160 607 131 l 961 761 l 1150 761 l 767 79 q 683 -6 735 22 q 574 -33 631 -33 q 466 -6 518 -33 q 383 79 414 22 l 0 761 l 189 761 z "},"W":{"ha":1767,"x_min":0,"x_max":1725,"o":"m 189 761 l 526 160 q 575 132 543 132 q 624 160 607 132 l 768 418 l 575 761 l 764 761 l 863 586 l 961 761 l 1150 761 l 957 418 l 1103 160 q 1124 139 1111 146 q 1150 132 1136 132 q 1177 139 1164 132 q 1199 160 1190 146 l 1536 761 l 1725 761 l 1342 79 q 1258 -6 1310 22 q 1151 -33 1207 -33 q 1042 -6 1094 -33 q 958 79 990 22 l 863 250 l 767 79 q 683 -6 735 22 q 574 -33 631 -33 q 466 -6 518 -33 q 383 79 414 22 l 0 761 l 189 761 z "},"X":{"ha":1338,"x_min":0,"x_max":1283,"o":"m 1046 0 l 749 297 l 535 297 l 238 0 l 4 0 l 385 381 l 0 764 l 233 764 l 535 463 l 749 463 l 1050 764 l 1283 764 l 899 381 l 1279 0 l 1046 0 z "},"Y":{"ha":1219,"x_min":0,"x_max":1160,"o":"m 496 332 q 440 340 464 332 q 392 372 415 349 l 0 764 l 233 764 l 500 497 l 658 497 l 926 764 l 1160 764 l 767 372 q 719 340 744 349 q 663 332 694 332 l 663 0 l 496 0 l 496 332 z "},"Z":{"ha":1188,"x_min":-3,"x_max":1140,"o":"m 17 594 l 17 761 l 1083 761 q 1117 750 1103 761 q 1135 723 1131 739 q 1135 690 1140 707 q 1114 661 1131 672 q 760 415 936 538 q 407 167 585 292 l 1126 167 l 1126 0 l 54 0 q 21 11 35 0 q 2 38 7 22 q 2 72 -3 54 q 24 100 7 89 q 377 347 201 224 q 731 594 553 469 l 17 594 z "},"!":{"ha":274,"x_min":0,"x_max":167,"o":"m 167 217 l 0 217 l 0 764 l 167 764 l 167 217 m 0 0 l 0 167 l 167 167 l 167 0 l 0 0 z "},"\"":{"ha":564,"x_min":0,"x_max":457,"o":"m 232 718 q 200 697 213 718 q 180 642 188 675 q 169 570 172 610 q 166 494 167 531 q 166 430 165 458 q 167 390 167 401 l 0 390 l 0 557 q 18 647 0 604 q 68 721 36 689 q 142 771 100 753 q 232 789 183 789 l 232 718 m 457 718 q 425 697 438 718 q 405 642 413 675 q 394 570 397 610 q 391 494 392 531 q 391 430 390 458 q 392 390 392 401 l 225 390 l 225 557 q 243 647 225 604 q 292 721 261 689 q 366 771 324 753 q 457 789 408 789 l 457 718 z "},"#":{"ha":854,"x_min":0,"x_max":764,"o":"m 296 0 l 128 0 l 128 128 l 0 128 l 0 296 l 128 296 l 128 468 l 0 468 l 0 636 l 128 636 l 128 764 l 296 764 l 296 636 l 468 636 l 468 764 l 636 764 l 636 636 l 764 636 l 764 468 l 636 468 l 636 296 l 764 296 l 764 128 l 636 128 l 636 0 l 468 0 l 468 128 l 296 128 l 296 0 m 468 296 l 468 468 l 296 468 l 296 296 l 468 296 z "},"$":{"ha":1231,"x_min":0,"x_max":1172,"o":"m 176 221 q 215 182 190 197 q 268 167 239 167 l 536 167 l 536 297 l 244 297 q 153 315 196 297 q 79 365 111 333 q 29 439 47 397 q 11 529 11 481 q 29 620 11 578 q 79 694 47 663 q 153 743 111 725 q 244 761 196 761 l 536 761 l 536 847 l 619 847 l 619 761 l 903 761 q 997 744 951 761 q 1077 699 1042 728 q 1138 628 1113 669 q 1172 540 1163 588 l 996 540 q 958 579 982 564 q 903 594 933 594 l 619 594 l 619 464 l 940 464 q 1030 446 988 464 q 1104 396 1072 428 q 1154 322 1136 364 q 1172 232 1172 279 q 1154 142 1172 183 q 1104 68 1136 100 q 1030 18 1072 36 q 940 0 988 0 l 619 0 l 619 -86 l 536 -86 l 536 0 l 268 0 q 175 17 219 0 q 94 63 131 33 q 34 132 58 92 q 0 221 10 172 l 176 221 m 619 167 l 940 167 q 985 185 967 167 q 1004 232 1004 204 q 985 278 1004 260 q 940 297 967 297 l 619 297 l 619 167 m 536 594 l 244 594 q 234 594 244 596 q 212 585 224 593 q 190 565 200 578 q 179 529 179 551 q 198 483 179 501 q 244 464 217 464 l 536 464 l 536 594 z "},"%":{"ha":1090,"x_min":0,"x_max":997,"o":"m 842 261 q 938 222 899 261 q 978 125 978 182 q 938 28 978 68 q 842 -11 899 -11 q 745 28 785 -11 q 706 125 706 68 q 745 222 706 182 q 842 261 785 261 m 163 781 q 258 741 219 781 q 297 644 297 701 q 258 548 297 588 q 163 508 219 508 q 66 548 106 508 q 26 644 26 588 q 66 741 26 701 q 163 781 106 781 m 997 764 l 563 329 l 233 0 l 0 0 l 764 764 l 997 764 z "},"&":{"ha":1193,"x_min":0,"x_max":1115,"o":"m 53 381 q 14 449 28 411 q 0 529 0 486 q 18 619 0 576 q 68 693 36 661 q 142 743 100 725 q 232 761 183 761 l 586 761 l 586 594 l 232 594 q 185 576 204 594 q 167 529 167 557 q 185 483 167 501 q 232 464 204 464 q 674 463 454 463 q 1115 463 893 463 l 1115 297 l 1046 297 l 1046 232 q 1028 142 1046 183 q 978 68 1010 100 q 903 18 946 36 q 814 0 861 0 l 232 0 q 142 18 183 0 q 68 68 100 36 q 18 142 36 100 q 0 232 0 183 q 14 313 0 275 q 53 381 28 350 m 232 297 q 185 278 204 297 q 167 232 167 260 q 185 185 167 204 q 232 167 204 167 l 814 167 q 860 185 842 167 q 879 232 879 204 l 879 297 l 232 297 z "},"'":{"ha":333,"x_min":0,"x_max":232,"o":"m 232 718 q 200 697 213 718 q 180 642 188 675 q 169 570 172 610 q 166 494 167 531 q 166 430 165 458 q 167 390 167 401 l 0 390 l 0 557 q 18 647 0 604 q 68 721 36 689 q 142 771 100 753 q 232 789 183 789 l 232 718 z "},"(":{"ha":333,"x_min":0,"x_max":232,"o":"m 232 710 q 200 688 213 710 q 180 634 188 667 q 169 562 172 601 q 166 485 167 522 q 166 420 165 449 q 167 381 167 392 l 167 167 q 166 127 167 156 q 166 63 165 99 q 169 -13 167 26 q 180 -85 172 -53 q 200 -140 188 -118 q 232 -161 213 -161 l 232 -232 q 142 -214 183 -232 q 68 -165 100 -196 q 18 -91 36 -133 q 0 0 0 -49 l 0 547 q 18 638 0 596 q 68 713 36 681 q 142 763 100 744 q 232 781 183 781 l 232 710 z "},")":{"ha":306,"x_min":0,"x_max":232,"o":"m 0 781 q 90 763 47 781 q 164 713 132 744 q 214 638 196 681 q 232 547 232 596 l 232 0 q 214 -91 232 -49 q 164 -165 196 -133 q 90 -214 132 -196 q 0 -232 47 -232 l 0 -161 q 32 -140 19 -161 q 52 -85 44 -118 q 63 -13 60 -53 q 66 63 65 26 q 66 127 67 99 q 65 167 65 156 l 65 381 q 66 420 65 392 q 66 485 67 449 q 63 562 65 522 q 52 634 60 601 q 32 688 44 667 q 0 710 19 710 l 0 781 z "},"*":{"ha":510,"x_min":0,"x_max":446,"o":"m 181 471 l 97 386 q 39 446 61 411 l 122 529 l 4 529 q 0 571 0 550 q 4 613 0 593 l 122 613 l 39 697 q 65 729 50 714 q 97 756 79 744 l 181 672 l 181 790 q 224 794 201 794 q 265 790 244 794 l 265 672 l 349 756 q 381 729 367 744 q 408 697 396 714 l 324 613 l 443 613 q 445 592 444 603 q 446 571 446 582 q 445 550 446 560 q 443 529 444 540 l 324 529 l 408 446 q 349 386 383 411 l 265 471 l 265 351 q 224 347 244 347 q 181 351 201 347 l 181 471 z "},"+":{"ha":624,"x_min":0,"x_max":547,"o":"m 0 190 l 0 357 l 190 357 l 190 547 l 357 547 l 357 357 l 547 357 l 547 190 l 357 190 l 357 0 l 190 0 l 190 190 l 0 190 z "},",":{"ha":242,"x_min":-65,"x_max":167,"o":"m -65 -161 q -33 -140 -46 -161 q -13 -85 -21 -118 q -3 -13 -6 -53 q 1 63 0 26 q 1 127 1 99 q 0 167 0 156 l 167 167 l 167 0 q 149 -91 167 -49 q 99 -165 131 -133 q 24 -214 67 -196 q -65 -232 -18 -232 l -65 -161 z "},"-":{"ha":633,"x_min":0,"x_max":547,"o":"m 0 190 l 0 357 l 547 357 l 547 190 l 0 190 z "},".":{"ha":268,"x_min":0,"x_max":167,"o":"m 167 0 l 0 0 l 0 167 l 167 167 l 167 0 z "},"/":{"ha":1069,"x_min":0,"x_max":997,"o":"m 997 764 l 563 329 l 233 0 l 0 0 l 764 764 l 997 764 z "},":":{"ha":247,"x_min":0,"x_max":167,"o":"m 167 0 l 0 0 l 0 167 l 167 167 l 167 0 m 167 381 l 0 381 l 0 547 l 167 547 l 167 381 z "},";":{"ha":264,"x_min":-65,"x_max":167,"o":"m 167 381 l 0 381 l 0 547 l 167 547 l 167 381 m -65 -161 q -33 -140 -46 -161 q -13 -85 -21 -118 q -3 -13 -6 -53 q 1 63 0 26 q 1 127 1 99 q 0 167 0 156 l 167 167 l 167 0 q 149 -91 167 -49 q 99 -165 131 -133 q 24 -214 67 -196 q -65 -232 -18 -232 l -65 -161 z "},"<":{"ha":875,"x_min":0,"x_max":794,"o":"m 794 761 l 193 424 q 171 403 179 415 q 165 375 165 393 q 171 347 165 357 q 193 328 181 333 l 775 0 l 439 0 l 113 183 q 29 264 60 213 q 0 375 0 314 q 29 486 0 436 q 113 567 60 538 l 458 761 l 794 761 z "},"=":{"ha":633,"x_min":0,"x_max":547,"o":"m 0 68 l 0 236 l 547 236 l 547 68 l 0 68 m 0 313 l 0 479 l 547 479 l 547 313 l 0 313 z "},">":{"ha":875,"x_min":0,"x_max":794,"o":"m 336 761 l 682 567 q 765 486 735 538 q 794 375 794 436 q 765 264 794 314 q 682 183 735 213 l 356 0 l 19 0 l 601 328 q 624 347 614 333 q 629 375 629 357 q 624 403 629 393 q 601 424 615 415 l 0 761 l 336 761 z "},"?":{"ha":993,"x_min":0,"x_max":926,"o":"m 653 383 q 728 415 697 383 q 760 490 760 446 q 728 566 760 535 q 653 597 697 597 l 0 597 l 0 764 l 653 764 q 758 742 708 764 q 846 684 808 721 q 905 597 883 647 q 926 490 926 547 q 905 383 926 433 q 846 297 883 333 q 758 238 808 260 q 653 217 708 217 l 225 217 l 225 383 l 653 383 m 225 0 l 225 167 l 392 167 l 392 0 l 225 0 z "},"@":{"ha":1208,"x_min":-7,"x_max":1122,"o":"m 856 214 l 522 214 q 416 235 465 214 q 329 294 367 257 q 270 381 292 331 q 249 488 249 431 q 270 594 249 544 q 328 681 292 644 q 415 740 365 718 q 522 761 465 761 l 849 761 q 956 740 906 761 q 1042 681 1006 718 q 1101 594 1079 644 q 1122 488 1122 544 l 1122 0 l 267 0 q 160 22 210 0 q 73 80 110 43 q 15 167 36 117 q -7 274 -7 217 l -7 761 l 160 761 l 160 274 q 191 198 160 229 q 267 167 222 167 l 956 167 l 956 488 q 924 563 956 532 q 849 594 893 594 l 522 594 q 447 563 478 594 q 415 488 415 532 q 447 412 415 443 q 522 381 478 381 l 856 381 l 856 214 z "},"[":{"ha":451,"x_min":0,"x_max":317,"o":"m 167 -232 l 0 -232 l 0 764 l 317 764 l 317 597 l 167 597 l 167 -65 l 317 -65 l 317 -232 l 167 -232 z "},"\\":{"ha":1074,"x_min":0,"x_max":997,"o":"m 233 764 l 997 0 l 764 0 l 435 329 l 0 764 l 233 764 z "},"]":{"ha":446,"x_min":0,"x_max":317,"o":"m 0 -232 l 0 -65 l 150 -65 l 150 597 l 0 597 l 0 764 l 317 764 l 317 -232 l 150 -232 l 0 -232 z "},"_":{"ha":908,"x_min":0,"x_max":796,"o":"m 796 0 l 796 -83 l 0 -83 l 0 0 l 796 0 z "},"`":{"ha":354,"x_min":6,"x_max":268,"o":"m 6 769 l 174 769 l 268 618 l 100 618 l 6 769 z "},"a":{"ha":1026,"x_min":0,"x_max":976,"o":"m 710 0 l 274 0 q 167 22 217 0 q 80 80 117 43 q 22 167 43 117 q 0 274 0 217 q 22 381 0 331 q 80 467 43 431 q 167 526 117 504 q 274 547 217 547 l 703 547 q 810 526 760 547 q 897 467 860 504 q 955 381 933 431 q 976 274 976 331 l 976 0 l 810 0 l 810 274 q 778 349 810 318 q 703 381 747 381 l 274 381 q 198 349 229 381 q 167 274 167 318 q 198 198 167 229 q 274 167 229 167 l 710 167 l 710 0 z "},"b":{"ha":1013,"x_min":0,"x_max":976,"o":"m 167 274 q 198 198 167 229 q 274 167 229 167 l 703 167 q 778 198 747 167 q 810 274 810 229 q 778 349 810 318 q 703 381 747 381 l 267 381 l 267 547 l 703 547 q 810 526 760 547 q 897 467 860 504 q 955 381 933 431 q 976 274 976 331 q 955 167 976 217 q 897 80 933 117 q 810 22 860 43 q 703 0 760 0 l 274 0 q 167 22 217 0 q 80 80 117 43 q 22 167 43 117 q 0 274 0 217 l 0 715 l 167 715 l 167 274 z "},"c":{"ha":969,"x_min":0,"x_max":918,"o":"m 918 0 l 274 0 q 167 22 217 0 q 80 80 117 43 q 22 167 43 117 q 0 274 0 217 q 22 381 0 331 q 80 467 43 431 q 167 526 117 504 q 274 547 217 547 l 918 547 l 918 381 l 274 381 q 198 349 229 381 q 167 274 167 318 q 198 198 167 229 q 274 167 229 167 l 918 167 l 918 0 z "},"d":{"ha":1064,"x_min":0,"x_max":976,"o":"m 810 715 l 976 715 l 976 274 q 955 167 976 217 q 897 80 933 117 q 810 22 860 43 q 703 0 760 0 l 274 0 q 167 22 217 0 q 80 80 117 43 q 22 167 43 117 q 0 274 0 217 q 22 381 0 331 q 80 467 43 431 q 167 526 117 504 q 274 547 217 547 l 710 547 l 710 381 l 274 381 q 198 349 229 381 q 167 274 167 318 q 198 198 167 229 q 274 167 229 167 l 703 167 q 778 198 747 167 q 810 274 810 229 l 810 715 z "},"e":{"ha":983,"x_min":0,"x_max":929,"o":"m 918 167 l 918 0 l 274 0 q 167 22 217 0 q 80 80 117 43 q 22 167 43 117 q 0 274 0 217 q 22 381 0 331 q 80 467 43 431 q 167 526 117 504 q 274 547 217 547 l 817 547 q 878 529 851 547 q 917 484 904 511 q 927 425 929 457 q 903 367 925 393 l 743 167 l 918 167 m 274 385 q 232 376 251 385 q 198 351 213 367 q 175 316 183 336 q 167 274 167 296 q 198 198 167 229 q 274 167 229 167 l 538 167 l 711 385 l 274 385 z "},"f":{"ha":918,"x_min":0,"x_max":825,"o":"m 167 -168 l 0 -168 l 0 274 q 22 381 0 331 q 80 467 43 431 q 167 526 117 504 q 274 547 217 547 l 825 547 l 825 381 l 274 381 q 198 349 229 381 q 167 274 167 318 l 167 183 l 825 183 l 825 17 l 167 17 l 167 -168 z "},"g":{"ha":1074,"x_min":0,"x_max":976,"o":"m 744 -65 q 791 -47 772 -65 q 810 0 810 -28 l 810 274 q 778 349 810 318 q 703 381 747 381 l 274 381 q 198 349 229 381 q 167 274 167 318 q 198 198 167 229 q 274 167 229 167 l 710 167 l 710 0 l 274 0 q 167 22 217 0 q 80 80 117 43 q 22 167 43 117 q 0 274 0 217 q 22 381 0 331 q 80 467 43 431 q 167 526 117 504 q 274 547 217 547 l 703 547 q 810 526 760 547 q 897 467 860 504 q 955 381 933 431 q 976 274 976 331 l 976 0 q 958 -91 976 -49 q 908 -165 940 -133 q 834 -214 876 -196 q 744 -232 792 -232 l 744 -65 z "},"h":{"ha":1013,"x_min":0,"x_max":961,"o":"m 167 0 l 0 0 l 0 715 l 167 715 l 167 547 l 847 547 q 910 528 883 547 q 949 480 936 508 q 958 418 961 451 q 935 357 956 385 l 661 0 l 453 0 l 742 381 l 167 381 l 167 0 z "},"i":{"ha":246,"x_min":0,"x_max":167,"o":"m 167 618 l 0 618 l 0 715 l 167 715 l 167 618 m 0 547 l 167 547 l 167 0 l 0 0 l 0 547 z "},"j":{"ha":376,"x_min":0,"x_max":274,"o":"m 274 107 q 252 0 274 50 q 193 -87 231 -50 q 106 -147 156 -125 q 0 -168 56 -168 l 0 0 q 76 31 44 0 q 107 107 107 63 l 107 547 l 274 547 l 274 107 m 274 618 l 107 618 l 107 715 l 274 715 l 274 618 z "},"k":{"ha":897,"x_min":0,"x_max":882,"o":"m 649 0 l 457 192 l 167 192 l 167 0 l 0 0 l 0 715 l 167 715 l 167 356 l 457 356 l 649 547 l 882 547 l 607 274 l 882 0 l 649 0 z "},"l":{"ha":275,"x_min":29,"x_max":196,"o":"m 196 0 l 29 0 l 29 715 l 196 715 l 196 0 z "},"m":{"ha":1432,"x_min":0,"x_max":1375,"o":"m 489 547 q 596 528 544 547 q 688 471 647 510 q 774 527 725 507 q 878 547 822 547 l 1101 547 q 1208 526 1158 547 q 1295 467 1258 504 q 1353 381 1332 431 q 1375 274 1375 331 l 1375 0 l 1208 0 l 1208 274 q 1174 352 1208 324 q 1093 381 1140 381 l 878 381 q 802 349 833 381 q 771 274 771 318 l 771 0 l 604 0 l 604 274 q 570 352 604 324 q 489 381 536 381 l 274 381 q 198 349 229 381 q 167 274 167 318 l 167 0 l 0 0 l 0 274 q 22 381 0 331 q 80 467 43 431 q 167 526 117 504 q 274 547 217 547 l 489 547 z "},"n":{"ha":997,"x_min":0,"x_max":918,"o":"m 274 547 l 644 547 q 750 526 700 547 q 838 467 800 504 q 897 381 875 431 q 918 274 918 331 l 918 0 l 750 0 l 750 274 q 719 349 750 318 q 644 381 689 381 l 274 381 q 198 349 229 381 q 167 274 167 318 l 167 0 l 0 0 l 0 274 q 22 381 0 331 q 80 467 43 431 q 167 526 117 504 q 274 547 217 547 z "},"o":{"ha":1069,"x_min":0,"x_max":1007,"o":"m 274 0 q 167 22 217 0 q 80 80 117 43 q 22 167 43 117 q 0 274 0 217 q 22 381 0 331 q 80 467 43 431 q 167 526 117 504 q 274 547 217 547 l 733 547 q 840 526 790 547 q 927 467 890 504 q 985 381 964 431 q 1007 274 1007 331 q 985 167 1007 217 q 927 80 964 117 q 840 22 890 43 q 733 0 790 0 l 274 0 m 274 381 q 198 349 229 381 q 167 274 167 318 q 198 198 167 229 q 274 167 229 167 l 733 167 q 809 198 778 167 q 840 274 840 229 q 809 349 840 318 q 733 381 778 381 l 274 381 z "},"p":{"ha":1013,"x_min":0,"x_max":976,"o":"m 267 167 l 703 167 q 778 198 747 167 q 810 274 810 229 q 778 349 810 318 q 703 381 747 381 l 274 381 q 198 349 229 381 q 167 274 167 318 l 167 -168 l 0 -168 l 0 274 q 22 381 0 331 q 80 467 43 431 q 167 526 117 504 q 274 547 217 547 l 703 547 q 810 526 760 547 q 897 467 860 504 q 955 381 933 431 q 976 274 976 331 q 955 167 976 217 q 897 80 933 117 q 810 22 860 43 q 703 0 760 0 l 267 0 l 267 167 z "},"q":{"ha":1042,"x_min":0,"x_max":976,"o":"m 710 0 l 274 0 q 167 22 217 0 q 80 80 117 43 q 22 167 43 117 q 0 274 0 217 q 22 381 0 331 q 80 467 43 431 q 167 526 117 504 q 274 547 217 547 l 703 547 q 810 526 760 547 q 897 467 860 504 q 955 381 933 431 q 976 274 976 331 l 976 -168 l 810 -168 l 810 274 q 778 349 810 318 q 703 381 747 381 l 274 381 q 198 349 229 381 q 167 274 167 318 q 198 198 167 229 q 274 167 229 167 l 710 167 l 710 0 z "},"r":{"ha":607,"x_min":0,"x_max":572,"o":"m 0 0 l 0 274 q 22 381 0 331 q 80 467 43 431 q 167 526 117 504 q 274 547 217 547 l 572 547 l 572 381 l 274 381 q 198 349 229 381 q 167 274 167 318 l 167 0 l 0 0 z "},"s":{"ha":969,"x_min":0,"x_max":932,"o":"m 0 163 l 463 163 l 299 367 q 274 426 276 394 q 284 484 271 457 q 324 529 297 511 q 385 547 350 547 l 932 547 l 932 385 l 490 385 l 654 181 q 678 122 676 153 q 668 63 681 90 q 629 18 656 36 q 568 0 603 0 l 0 0 l 0 163 z "},"t":{"ha":738,"x_min":0,"x_max":696,"o":"m 167 547 l 610 547 l 610 381 l 167 381 l 167 274 q 198 198 167 229 q 274 167 229 167 l 696 167 l 696 0 l 274 0 q 167 22 217 0 q 80 80 117 43 q 22 167 43 117 q 0 274 0 217 l 0 715 l 167 715 l 167 547 z "},"u":{"ha":897,"x_min":0,"x_max":840,"o":"m 274 0 q 167 22 217 0 q 80 80 117 43 q 22 167 43 117 q 0 274 0 217 l 0 547 l 167 547 l 167 274 q 198 198 167 229 q 274 167 229 167 l 567 167 q 642 198 611 167 q 672 274 672 229 l 672 547 l 840 547 l 840 274 q 819 167 840 217 q 760 80 797 117 q 672 22 722 43 q 567 0 622 0 l 274 0 z "},"v":{"ha":1085,"x_min":0,"x_max":1051,"o":"m 204 547 l 482 176 q 526 153 499 153 q 569 176 553 153 l 847 547 l 1051 547 l 701 78 q 622 11 668 33 q 526 -11 575 -11 q 430 11 476 -11 q 350 78 383 33 l 0 547 l 204 547 z "},"w":{"ha":1403,"x_min":0,"x_max":1372,"o":"m 190 547 l 404 182 q 425 161 413 168 q 451 154 438 154 q 478 161 465 154 q 499 182 490 168 l 590 339 l 468 547 l 658 547 l 686 501 l 713 547 l 903 547 l 781 339 l 872 182 q 920 154 889 154 q 968 182 951 154 l 1181 547 l 1372 547 l 1110 99 q 1026 16 1078 43 q 919 -11 974 -11 q 813 17 864 -11 q 731 99 761 44 l 686 175 l 642 99 q 558 17 610 44 q 451 -11 507 -11 q 344 17 396 -11 q 261 99 293 44 l 0 547 l 190 547 z "},"x":{"ha":1107,"x_min":0,"x_max":1026,"o":"m 793 0 l 601 192 l 425 192 l 233 0 l 0 0 l 274 274 l 0 547 l 233 547 l 425 356 l 601 356 l 793 547 l 1026 547 l 753 274 l 1026 0 l 793 0 z "},"y":{"ha":1028,"x_min":0,"x_max":1001,"o":"m 376 -199 l 492 0 l 446 0 q 336 28 386 0 q 256 110 286 57 l 0 547 l 190 547 l 397 192 q 446 165 414 165 l 588 165 l 811 547 l 1001 547 l 567 -199 l 376 -199 z "},"z":{"ha":883,"x_min":-3,"x_max":831,"o":"m 439 390 l 1 390 l 1 544 l 772 544 q 806 533 793 544 q 825 506 819 522 q 826 473 831 490 q 804 444 821 456 q 594 298 699 371 q 383 151 489 225 l 804 151 l 804 0 l 54 0 q 21 11 35 0 q 2 38 7 22 q 2 72 -3 54 q 24 100 7 89 l 439 390 z "},"{":{"ha":386,"x_min":0,"x_max":297,"o":"m 297 -232 q 158 -186 218 -232 q 75 -68 97 -140 q 67 -26 69 -50 q 63 23 64 -3 q 62 74 63 49 q 58 119 61 99 q 39 203 53 168 q 0 239 25 239 l 0 310 q 26 322 15 310 q 44 356 36 335 q 56 405 51 378 q 63 461 60 432 q 64 513 64 488 q 65 561 64 538 q 72 608 67 585 q 92 657 78 632 q 176 747 121 713 q 297 781 231 781 l 297 710 q 258 674 271 710 q 238 588 244 638 q 233 502 232 546 q 226 419 235 458 q 189 335 215 374 q 124 274 163 297 q 185 217 160 251 q 222 143 210 183 q 231 97 228 122 q 234 47 233 72 q 235 -5 235 21 q 239 -54 236 -31 q 260 -130 246 -99 q 297 -161 274 -161 l 297 -232 z "},"|":{"ha":188,"x_min":0,"x_max":83,"o":"m 83 -232 l 0 -232 l 0 764 l 83 764 l 83 -232 l 83 -232 z "},"}":{"ha":392,"x_min":0,"x_max":297,"o":"m 0 -161 q 38 -130 24 -161 q 58 -54 51 -99 q 63 47 64 -7 q 75 143 63 100 q 113 217 88 183 q 174 274 138 251 q 108 335 135 297 q 71 419 82 374 q 64 502 63 458 q 60 588 65 546 q 40 674 53 638 q 0 710 26 710 l 0 781 q 122 747 67 781 q 206 657 176 713 q 225 608 219 632 q 232 561 231 585 q 233 513 233 538 q 235 461 232 488 q 242 405 238 432 q 253 356 246 378 q 272 322 261 335 q 297 310 282 310 l 297 239 q 258 203 272 239 q 239 119 244 168 q 235 74 236 99 q 233 23 235 49 q 230 -26 232 -3 q 222 -68 228 -50 q 140 -186 200 -140 q 0 -232 79 -232 l 0 -161 z "},"~":{"ha":785,"x_min":17,"x_max":711,"o":"m 642 311 q 623 335 639 326 q 583 346 607 343 q 531 347 560 349 q 471 342 501 346 q 374 326 422 336 q 279 307 326 317 q 188 299 232 297 q 110 315 144 300 q 51 359 75 329 q 17 436 26 389 l 86 450 q 105 426 89 435 q 144 415 121 418 q 198 414 168 413 q 258 419 228 415 q 354 435 307 425 q 450 454 401 444 q 540 463 497 464 q 619 447 583 461 q 678 402 654 432 q 711 325 703 372 l 642 311 z "},"¡":{"ha":274,"x_min":0,"x_max":167,"o":"m 167 0 l 0 0 l 0 547 l 167 547 l 167 0 m 167 764 l 167 597 l 0 597 l 0 764 l 167 764 z "},"¢":{"ha":969,"x_min":0,"x_max":918,"o":"m 918 0 l 274 0 q 167 22 217 0 q 80 80 117 43 q 22 167 43 117 q 0 274 0 217 q 22 381 0 331 q 80 467 43 431 q 167 526 117 504 q 274 547 217 547 l 918 547 l 918 381 l 274 381 q 198 349 229 381 q 167 274 167 318 q 198 198 167 229 q 274 167 229 167 l 918 167 l 918 0 m 526 -232 l 443 -232 l 443 764 l 526 764 l 526 -232 z "},"£":{"ha":1053,"x_min":0,"x_max":986,"o":"m 654 768 q 761 747 711 768 q 848 688 811 725 q 906 601 885 651 q 928 494 928 551 l 761 494 q 730 570 761 539 q 654 601 699 601 l 439 601 q 363 570 394 601 q 332 494 332 539 l 332 417 l 497 417 l 497 335 l 332 335 l 332 163 l 986 163 l 986 0 l 110 0 l 110 163 l 165 163 l 165 335 l 0 335 l 0 417 l 165 417 l 165 494 q 187 601 165 551 q 245 688 208 651 q 332 747 282 725 q 439 768 382 768 l 654 768 z "},"¤":{"ha":1157,"x_min":0,"x_max":0,"o":""},"¥":{"ha":1219,"x_min":8,"x_max":1168,"o":"m 311 314 l 311 397 l 375 397 l 8 764 l 242 764 l 508 497 l 667 497 l 935 764 l 1168 764 l 800 397 l 865 397 l 865 314 l 671 314 l 671 218 l 865 218 l 865 135 l 671 135 l 671 0 l 504 0 l 504 135 l 311 135 l 311 218 l 504 218 l 504 314 l 311 314 z "},"×":{"ha":1096,"x_min":0,"x_max":1026,"o":"m 794 0 l 603 192 l 425 192 l 233 0 l 0 0 l 274 274 l 0 549 l 233 549 l 425 357 l 603 357 l 794 549 l 1026 549 l 753 274 l 1026 0 l 794 0 z "},"Ù":{"ha":1157,"x_min":0,"x_max":1078,"o":"m 0 765 l 167 765 l 167 274 q 198 198 167 229 q 274 167 229 167 l 804 167 q 880 198 849 167 q 911 274 911 229 l 911 765 l 1078 765 l 1078 274 q 1056 167 1078 217 q 998 81 1035 118 q 911 22 961 43 q 804 0 861 0 l 274 0 q 167 22 217 0 q 80 80 117 43 q 22 167 43 117 q 0 274 0 217 l 0 765 m 350 986 l 518 986 l 613 835 l 444 835 l 350 986 z "},"À":{"ha":1160,"x_min":0,"x_max":1078,"o":"m 804 764 q 910 742 860 764 q 997 684 960 721 q 1056 597 1035 647 q 1078 490 1078 547 l 1078 0 l 910 0 l 910 183 l 167 183 l 167 0 l 0 0 l 0 490 q 22 597 0 547 q 80 684 43 647 q 167 742 117 721 q 274 764 217 764 l 804 764 m 167 350 l 910 350 l 910 490 q 879 566 910 535 q 804 597 849 597 l 274 597 q 198 566 229 597 q 167 490 167 535 l 167 350 m 369 986 l 536 986 l 631 835 l 464 835 l 369 986 z "},"Á":{"ha":1160,"x_min":0,"x_max":1078,"o":"m 625 835 l 458 835 l 553 986 l 719 986 l 625 835 m 804 764 q 910 742 860 764 q 997 684 960 721 q 1056 597 1035 647 q 1078 490 1078 547 l 1078 0 l 910 0 l 910 183 l 167 183 l 167 0 l 0 0 l 0 490 q 22 597 0 547 q 80 684 43 647 q 167 742 117 721 q 274 764 217 764 l 804 764 m 167 350 l 910 350 l 910 490 q 879 566 910 535 q 804 597 849 597 l 274 597 q 198 566 229 597 q 167 490 167 535 l 167 350 z "},"¨":{"ha":1157,"x_min":283,"x_max":725,"o":"m 450 618 l 283 618 l 283 715 l 450 715 l 450 618 m 725 618 l 557 618 l 557 715 l 725 715 l 725 618 z "},"Ä":{"ha":1160,"x_min":0,"x_max":1078,"o":"m 804 764 q 910 742 860 764 q 997 684 960 721 q 1056 597 1035 647 q 1078 490 1078 547 l 1078 0 l 910 0 l 910 183 l 167 183 l 167 0 l 0 0 l 0 490 q 22 597 0 547 q 80 684 43 647 q 167 742 117 721 q 274 764 217 764 l 804 764 m 760 835 l 592 835 l 592 932 l 760 932 l 760 835 m 167 350 l 910 350 l 910 490 q 879 566 910 535 q 804 597 849 597 l 274 597 q 198 566 229 597 q 167 490 167 535 l 167 350 m 485 835 l 318 835 l 318 932 l 485 932 l 485 835 z "},"´":{"ha":339,"x_min":42,"x_max":304,"o":"m 210 618 l 42 618 l 136 769 l 304 769 l 210 618 z "},"Ã":{"ha":1160,"x_min":0,"x_max":1078,"o":"m 804 765 q 911 744 861 765 q 998 685 961 722 q 1056 597 1035 647 q 1078 490 1078 547 l 1078 0 l 911 0 l 911 183 l 167 183 l 167 0 l 0 0 l 0 490 q 22 597 0 547 q 80 685 43 647 q 167 744 117 722 q 274 765 217 765 l 804 765 m 167 351 l 911 351 l 911 490 q 880 566 911 535 q 804 597 849 597 l 274 597 q 198 566 229 597 q 167 490 167 535 l 167 351 m 817 835 q 798 858 814 850 q 758 870 782 867 q 706 872 735 874 q 646 867 676 871 q 549 850 597 860 q 453 831 501 840 q 363 822 406 821 q 285 838 319 824 q 226 883 250 853 q 192 960 201 913 l 261 974 q 280 950 264 958 q 319 939 296 942 q 372 938 343 936 q 432 943 401 939 q 528 959 481 950 q 625 978 576 968 q 715 986 672 988 q 793 970 758 985 q 852 926 828 956 q 886 849 876 896 l 817 835 z "},"Â":{"ha":1160,"x_min":0,"x_max":1078,"o":"m 804 764 q 910 742 860 764 q 997 684 960 721 q 1056 597 1035 647 q 1078 490 1078 547 l 1078 0 l 910 0 l 910 183 l 167 183 l 167 0 l 0 0 l 0 490 q 22 597 0 547 q 80 684 43 647 q 167 742 117 721 q 274 764 217 764 l 804 764 m 539 918 l 486 835 l 319 835 l 413 986 l 664 986 l 758 835 l 592 835 l 539 918 m 167 350 l 910 350 l 910 490 q 879 566 910 535 q 804 597 849 597 l 274 597 q 198 566 229 597 q 167 490 167 535 l 167 350 z "},"È":{"ha":1182,"x_min":0,"x_max":1129,"o":"m 1129 167 l 1129 0 l 274 0 q 167 22 217 0 q 80 80 117 43 q 22 167 43 117 q 0 274 0 217 l 0 488 q 22 594 0 544 q 80 681 43 644 q 167 740 117 718 q 274 761 217 761 l 1129 761 l 1129 594 l 274 594 q 198 563 229 594 q 167 488 167 532 l 167 464 l 1078 464 l 1078 297 l 167 297 l 167 274 q 198 198 167 229 q 274 167 229 167 l 1129 167 m 389 986 l 557 986 l 650 835 l 483 835 l 389 986 z "},"É":{"ha":1182,"x_min":0,"x_max":1129,"o":"m 1129 167 l 1129 0 l 274 0 q 167 22 217 0 q 80 80 117 43 q 22 167 43 117 q 0 274 0 217 l 0 488 q 22 594 0 544 q 80 681 43 644 q 167 740 117 718 q 274 761 217 761 l 1129 761 l 1129 594 l 274 594 q 198 563 229 594 q 167 488 167 532 l 167 464 l 1078 464 l 1078 297 l 167 297 l 167 274 q 198 198 167 229 q 274 167 229 167 l 1129 167 m 646 835 l 478 835 l 572 986 l 740 986 l 646 835 z "},"Ê":{"ha":1182,"x_min":0,"x_max":1129,"o":"m 1129 167 l 1129 0 l 274 0 q 167 22 217 0 q 80 80 117 43 q 22 167 43 117 q 0 274 0 217 l 0 488 q 22 594 0 544 q 80 681 43 644 q 167 740 117 718 q 274 761 217 761 l 1129 761 l 1129 594 l 274 594 q 198 563 229 594 q 167 488 167 532 l 167 464 l 1078 464 l 1078 297 l 167 297 l 167 274 q 198 198 167 229 q 274 167 229 167 l 1129 167 m 565 918 l 513 835 l 344 835 l 439 986 l 522 986 l 607 986 l 690 986 l 785 835 l 617 835 l 565 918 z "},"Ë":{"ha":1182,"x_min":0,"x_max":1129,"o":"m 1129 167 l 1129 0 l 274 0 q 167 22 217 0 q 80 80 117 43 q 22 167 43 117 q 0 274 0 217 l 0 488 q 22 594 0 544 q 80 682 43 644 q 167 741 117 719 q 274 763 217 763 l 1129 761 l 1129 594 l 274 594 q 198 563 229 594 q 167 488 167 532 l 167 465 l 1078 465 l 1078 297 l 167 297 l 167 274 q 198 198 167 229 q 274 167 229 167 l 1129 167 m 807 835 l 639 835 l 639 932 l 807 932 l 807 835 m 532 835 l 365 835 l 365 932 l 532 932 l 532 835 z "},"Æ":{"ha":1556,"x_min":0,"x_max":1433,"o":"m 661 511 l 218 0 l 0 0 l 619 715 q 724 763 663 763 q 833 763 767 763 q 974 763 899 763 q 1124 762 1049 763 q 1265 761 1200 761 q 1375 761 1329 761 q 1433 761 1421 761 l 1433 594 l 828 594 l 828 465 l 1433 465 l 1433 297 l 828 297 l 828 274 q 859 198 828 229 q 935 167 890 167 l 1433 167 l 1433 0 l 935 0 q 828 22 878 0 q 741 81 778 43 q 683 167 704 118 q 661 274 661 217 l 661 511 z "},"Ç":{"ha":1186,"x_min":0,"x_max":1129,"o":"m 1129 169 l 1129 3 l 701 3 l 607 -149 l 440 -149 l 535 3 l 274 3 q 167 24 217 3 q 80 83 117 46 q 22 170 43 121 q 0 276 0 219 l 0 490 q 22 597 0 547 q 80 685 43 647 q 167 744 117 722 q 274 765 217 765 l 1129 765 l 1129 597 l 274 597 q 198 566 229 597 q 167 490 167 535 l 167 276 q 198 201 167 232 q 274 169 229 169 l 1129 169 z "},"Ì":{"ha":335,"x_min":18,"x_max":279,"o":"m 275 0 l 107 0 l 107 761 l 275 761 l 275 0 m 18 986 l 185 986 l 279 835 l 113 835 l 18 986 z "},"Í":{"ha":271,"x_min":0,"x_max":261,"o":"m 167 0 l 0 0 l 0 761 l 167 761 l 167 0 m 167 835 l 0 835 l 94 986 l 261 986 l 167 835 z "},"Î":{"ha":457,"x_min":10,"x_max":449,"o":"m 313 0 l 146 0 l 146 761 l 313 761 l 313 0 m 229 919 l 176 835 l 10 835 l 104 986 l 354 986 l 449 835 l 282 835 l 229 919 z "},"Ï":{"ha":443,"x_min":0,"x_max":442,"o":"m 304 0 l 138 0 l 138 761 l 304 761 l 304 0 m 442 835 l 274 835 l 274 932 l 442 932 l 442 835 m 167 835 l 0 835 l 0 932 l 167 932 l 167 835 z "},"Ñ":{"ha":1113,"x_min":0,"x_max":1025,"o":"m 1025 763 l 1025 93 q 1007 33 1025 58 q 962 -6 989 7 q 903 -16 935 -18 q 844 8 871 -14 l 165 556 l 165 0 l 0 0 l 0 669 q 10 715 0 694 q 38 751 21 736 q 76 774 54 767 q 124 779 99 782 q 179 756 153 775 l 860 207 l 860 763 l 1025 763 m 790 836 q 772 859 788 851 q 732 870 756 867 q 678 872 708 874 q 618 867 649 871 q 522 850 569 860 q 426 831 475 840 q 336 824 379 822 q 258 840 293 825 q 198 884 222 854 q 165 961 174 914 l 235 974 q 253 951 238 958 q 293 940 269 943 q 346 938 317 936 q 406 943 375 939 q 502 960 454 950 q 597 979 550 969 q 688 986 644 988 q 767 970 732 985 q 826 926 801 956 q 860 850 850 897 l 790 836 z "},"Ò":{"ha":1360,"x_min":0,"x_max":1331,"o":"m 381 0 q 233 30 301 0 q 112 112 164 60 q 30 233 60 164 q 0 381 0 301 q 30 529 0 460 q 112 650 60 599 q 233 731 164 701 q 381 761 301 761 l 949 761 q 1097 731 1028 761 q 1219 650 1167 701 q 1301 529 1271 599 q 1331 381 1331 460 q 1301 233 1331 301 q 1219 112 1271 164 q 1097 30 1167 60 q 949 0 1028 0 l 381 0 m 949 167 q 1032 183 993 167 q 1100 229 1071 200 q 1146 297 1129 258 q 1163 381 1163 336 q 1146 464 1163 425 q 1100 532 1129 503 q 1032 578 1071 561 q 949 594 993 594 l 381 594 q 297 578 336 594 q 229 532 258 561 q 183 464 200 503 q 167 381 167 425 q 183 297 167 336 q 229 229 200 258 q 297 183 258 200 q 381 167 336 167 l 949 167 m 476 986 l 644 986 l 739 835 l 571 835 l 476 986 z "},"Ó":{"ha":1360,"x_min":0,"x_max":1331,"o":"m 381 0 q 233 30 301 0 q 112 112 164 60 q 30 233 60 164 q 0 381 0 301 q 30 529 0 460 q 112 650 60 599 q 233 731 164 701 q 381 761 301 761 l 949 761 q 1097 731 1028 761 q 1219 650 1167 701 q 1301 529 1271 599 q 1331 381 1331 460 q 1301 233 1331 301 q 1219 112 1271 164 q 1097 30 1167 60 q 949 0 1028 0 l 381 0 m 949 167 q 1032 183 993 167 q 1100 229 1071 200 q 1146 297 1129 258 q 1163 381 1163 336 q 1146 464 1163 425 q 1100 532 1129 503 q 1032 578 1071 561 q 949 594 993 594 l 381 594 q 297 578 336 594 q 229 532 258 561 q 183 464 200 503 q 167 381 167 425 q 183 297 167 336 q 229 229 200 258 q 297 183 258 200 q 381 167 336 167 l 949 167 m 733 835 l 567 835 l 661 986 l 828 986 l 733 835 z "},"Ô":{"ha":1360,"x_min":0,"x_max":1331,"o":"m 381 0 q 233 30 301 0 q 112 112 164 60 q 30 233 60 164 q 0 381 0 301 q 30 529 0 460 q 112 650 60 599 q 233 731 164 701 q 381 761 301 761 l 949 761 q 1097 731 1028 761 q 1219 650 1167 701 q 1301 529 1271 599 q 1331 381 1331 460 q 1301 233 1331 301 q 1219 112 1271 164 q 1097 30 1167 60 q 949 0 1028 0 l 381 0 m 665 919 l 613 835 l 446 835 l 539 986 l 790 986 l 885 835 l 718 835 l 665 919 m 949 167 q 1032 183 993 167 q 1100 229 1071 200 q 1146 297 1129 258 q 1163 381 1163 336 q 1146 464 1163 425 q 1100 532 1129 503 q 1032 578 1071 561 q 949 594 993 594 l 381 594 q 297 578 336 594 q 229 532 258 561 q 183 464 200 503 q 167 381 167 425 q 183 297 167 336 q 229 229 200 258 q 297 183 258 200 q 381 167 336 167 l 949 167 z "},"Õ":{"ha":1360,"x_min":0,"x_max":1331,"o":"m 381 0 q 233 30 301 0 q 112 112 164 60 q 30 233 60 164 q 0 381 0 301 q 30 529 0 460 q 112 650 60 599 q 233 731 164 701 q 381 761 301 761 l 949 761 q 1097 731 1028 761 q 1219 650 1167 701 q 1301 529 1271 599 q 1331 381 1331 460 q 1301 233 1331 301 q 1219 112 1271 164 q 1097 30 1167 60 q 949 0 1028 0 l 381 0 m 949 167 q 1032 183 993 167 q 1100 229 1071 200 q 1146 297 1129 258 q 1163 381 1163 336 q 1146 464 1163 425 q 1100 532 1129 503 q 1032 578 1071 561 q 949 594 993 594 l 381 594 q 297 578 336 594 q 229 532 258 561 q 183 464 200 503 q 167 381 167 425 q 183 297 167 336 q 229 229 200 258 q 297 183 258 200 q 381 167 336 167 l 949 167 m 943 835 q 924 858 940 850 q 885 870 908 867 q 831 872 861 874 q 771 867 801 871 q 675 850 722 860 q 579 831 628 840 q 489 822 532 821 q 410 838 446 824 q 351 883 375 853 q 318 960 326 913 l 388 974 q 406 950 390 958 q 446 939 422 942 q 499 938 469 936 q 558 943 528 939 q 655 959 607 950 q 750 978 703 968 q 841 986 797 988 q 919 970 885 985 q 978 926 954 956 q 1013 849 1003 896 l 943 835 z "},"Ö":{"ha":1360,"x_min":0,"x_max":1331,"o":"m 381 0 q 233 30 301 0 q 112 112 164 60 q 30 233 60 164 q 0 381 0 301 q 30 529 0 460 q 112 650 60 599 q 233 731 164 701 q 381 761 301 761 l 949 761 q 1097 731 1028 761 q 1219 650 1167 701 q 1301 529 1271 599 q 1331 381 1331 460 q 1301 233 1331 301 q 1219 112 1271 164 q 1097 30 1167 60 q 949 0 1028 0 l 381 0 m 886 835 l 718 835 l 718 932 l 886 932 l 886 835 m 949 167 q 1032 183 993 167 q 1100 229 1071 200 q 1146 297 1129 258 q 1163 381 1163 336 q 1146 464 1163 425 q 1100 532 1129 503 q 1032 578 1071 561 q 949 594 993 594 l 381 594 q 297 578 336 594 q 229 532 258 561 q 183 464 200 503 q 167 381 167 425 q 183 297 167 336 q 229 229 200 258 q 297 183 258 200 q 381 167 336 167 l 949 167 m 611 835 l 444 835 l 444 932 l 611 932 l 611 835 z "},"Ú":{"ha":1157,"x_min":0,"x_max":1078,"o":"m 0 765 l 167 765 l 167 274 q 198 198 167 229 q 274 167 229 167 l 804 167 q 880 198 849 167 q 911 274 911 229 l 911 765 l 1078 765 l 1078 274 q 1056 167 1078 217 q 998 81 1035 118 q 911 22 961 43 q 804 0 861 0 l 274 0 q 167 22 217 0 q 80 80 117 43 q 22 167 43 117 q 0 274 0 217 l 0 765 m 607 835 l 440 835 l 535 986 l 701 986 l 607 835 z "},"Û":{"ha":1157,"x_min":0,"x_max":1078,"o":"m 0 765 l 167 765 l 167 274 q 198 198 167 229 q 274 167 229 167 l 804 167 q 880 198 849 167 q 911 274 911 229 l 911 765 l 1078 765 l 1078 274 q 1056 167 1078 217 q 998 81 1035 118 q 911 22 961 43 q 804 0 861 0 l 274 0 q 167 22 217 0 q 80 80 117 43 q 22 167 43 117 q 0 274 0 217 l 0 765 m 539 919 l 486 835 l 319 835 l 414 986 l 664 986 l 758 835 l 592 835 l 539 919 z "},"Ü":{"ha":1157,"x_min":0,"x_max":1078,"o":"m 0 765 l 167 765 l 167 274 q 198 198 167 229 q 274 167 229 167 l 804 167 q 880 198 849 167 q 911 274 911 229 l 911 765 l 1078 765 l 1078 274 q 1056 167 1078 217 q 998 81 1035 118 q 911 22 961 43 q 804 0 861 0 l 274 0 q 167 22 217 0 q 80 80 117 43 q 22 167 43 117 q 0 274 0 217 l 0 765 m 760 835 l 593 835 l 593 932 l 760 932 l 760 835 m 485 835 l 318 835 l 318 932 l 485 932 l 485 835 z "},"ß":{"ha":1188,"x_min":0,"x_max":1143,"o":"m 1089 381 q 1128 313 1114 350 q 1143 232 1143 275 q 1125 142 1143 183 q 1075 68 1107 100 q 1001 18 1043 36 q 911 0 958 0 l 271 0 l 271 167 l 911 167 q 956 185 938 167 q 975 232 975 204 q 956 278 975 260 q 911 297 938 297 l 271 297 l 271 464 l 911 464 q 956 483 938 464 q 975 529 975 501 q 956 576 975 557 q 911 594 938 594 l 232 594 q 185 576 204 594 q 167 529 167 557 l 167 0 l 0 0 l 0 529 q 18 620 0 578 q 68 694 36 663 q 142 743 100 725 q 232 761 183 761 l 911 761 q 1001 743 958 761 q 1075 694 1043 725 q 1125 620 1107 663 q 1143 529 1143 578 q 1128 449 1143 488 q 1089 381 1114 411 z "},"Ý":{"ha":1219,"x_min":-26,"x_max":1133,"o":"m 469 332 q 413 340 438 332 q 365 372 389 349 l -26 765 l 207 765 l 475 497 l 632 497 l 900 765 l 1133 765 l 742 372 q 694 340 718 349 q 638 332 669 332 l 638 0 l 496 0 l 469 332 m 617 835 l 450 835 l 544 986 l 711 986 l 617 835 z "},"¿":{"ha":993,"x_min":1,"x_max":928,"o":"m 275 381 q 199 349 231 381 q 168 274 168 318 q 199 198 168 229 q 275 167 231 167 l 928 167 l 928 0 l 275 0 q 169 22 218 0 q 82 80 119 43 q 23 167 44 117 q 1 274 1 217 q 23 381 1 331 q 82 467 44 431 q 169 526 119 504 q 275 547 218 547 l 703 547 l 703 381 l 275 381 m 703 764 l 703 597 l 536 597 l 536 764 l 703 764 z "},"à":{"ha":1026,"x_min":0,"x_max":976,"o":"m 339 769 l 506 769 l 600 618 l 432 618 l 339 769 m 710 0 l 274 0 q 167 22 217 0 q 80 80 117 43 q 22 167 43 117 q 0 274 0 217 q 22 381 0 331 q 80 468 43 431 q 167 527 117 506 q 274 549 217 549 l 703 549 q 810 527 760 549 q 897 468 860 506 q 955 381 933 431 q 976 274 976 331 l 976 0 l 810 0 l 810 274 q 778 349 810 318 q 703 381 747 381 l 274 381 q 198 349 229 381 q 167 274 167 318 q 198 198 167 229 q 274 167 229 167 l 710 167 l 710 0 z "},"á":{"ha":1026,"x_min":0,"x_max":976,"o":"m 553 618 l 385 618 l 479 769 l 646 769 l 553 618 m 710 0 l 274 0 q 167 22 217 0 q 80 80 117 43 q 22 167 43 117 q 0 274 0 217 q 22 381 0 331 q 80 468 43 431 q 167 527 117 506 q 274 549 217 549 l 703 549 q 810 527 760 549 q 897 468 860 506 q 955 381 933 431 q 976 274 976 331 l 976 0 l 810 0 l 810 274 q 778 349 810 318 q 703 381 747 381 l 274 381 q 198 349 229 381 q 167 274 167 318 q 198 198 167 229 q 274 167 229 167 l 710 167 l 710 0 z "},"â":{"ha":1026,"x_min":0,"x_max":976,"o":"m 710 0 l 274 0 q 167 22 217 0 q 80 80 117 43 q 22 167 43 117 q 0 274 0 217 q 22 381 0 331 q 80 468 43 431 q 167 527 117 506 q 274 549 217 549 l 703 549 q 810 527 760 549 q 897 468 860 506 q 955 381 933 431 q 976 274 976 331 l 976 0 l 810 0 l 810 274 q 778 349 810 318 q 703 381 747 381 l 274 381 q 198 349 229 381 q 167 274 167 318 q 198 198 167 229 q 274 167 229 167 l 710 167 l 710 0 m 489 703 l 436 618 l 268 618 l 363 769 l 614 769 l 708 618 l 540 618 l 489 703 z "},"ã":{"ha":1026,"x_min":0,"x_max":976,"o":"m 710 0 l 274 0 q 167 22 217 0 q 80 80 117 43 q 22 167 43 117 q 0 274 0 217 q 22 381 0 331 q 80 468 43 431 q 167 527 117 506 q 274 549 217 549 l 703 549 q 810 527 760 549 q 897 468 860 506 q 955 381 933 431 q 976 274 976 331 l 976 0 l 810 0 l 810 274 q 778 349 810 318 q 703 381 747 381 l 274 381 q 198 349 229 381 q 167 274 167 318 q 198 198 167 229 q 274 167 229 167 l 710 167 l 710 0 m 767 607 q 748 631 764 622 q 708 642 732 639 q 655 643 685 644 q 594 638 625 642 q 499 622 546 631 q 403 603 451 613 q 312 594 356 593 q 233 610 268 596 q 174 655 199 625 q 142 732 150 685 l 211 746 q 229 722 214 731 q 268 710 244 714 q 322 708 292 707 q 382 714 351 710 q 478 731 431 721 q 574 750 525 740 q 665 758 621 760 q 743 742 708 757 q 802 697 778 726 q 836 621 826 668 l 767 607 z "},"ä":{"ha":1026,"x_min":0,"x_max":976,"o":"m 710 0 l 274 0 q 167 22 217 0 q 80 80 117 43 q 22 167 43 117 q 0 274 0 217 q 22 381 0 331 q 80 468 43 431 q 167 527 117 506 q 274 549 217 549 l 703 549 q 810 527 760 549 q 897 468 860 506 q 955 381 933 431 q 976 274 976 331 l 976 0 l 810 0 l 810 274 q 778 349 810 318 q 703 381 747 381 l 274 381 q 198 349 229 381 q 167 274 167 318 q 198 198 167 229 q 274 167 229 167 l 710 167 l 710 0 m 710 618 l 542 618 l 542 715 l 710 715 l 710 618 m 435 618 l 268 618 l 268 715 l 435 715 l 435 618 z "},"æ":{"ha":1531,"x_min":0,"x_max":1443,"o":"m 600 0 l 274 0 q 167 22 217 0 q 81 80 118 43 q 22 167 43 117 q 0 274 0 217 q 22 381 0 331 q 80 468 43 431 q 167 527 117 506 q 274 549 217 549 l 788 549 q 1058 548 924 549 q 1331 547 1193 547 q 1392 529 1365 547 q 1431 484 1418 511 q 1441 425 1443 457 q 1417 367 1439 393 l 1257 167 l 1432 167 l 1432 0 l 700 0 l 700 274 q 669 349 700 318 q 593 381 638 381 l 274 381 q 198 349 229 381 q 167 274 167 318 q 198 198 167 229 q 274 167 229 167 l 600 167 l 600 0 m 1051 167 l 1225 385 l 843 385 q 867 274 867 333 l 867 167 l 1051 167 z "},"ç":{"ha":969,"x_min":0,"x_max":918,"o":"m 918 0 l 610 0 l 515 -153 l 349 -153 l 442 0 l 274 0 q 167 22 217 0 q 80 80 117 43 q 22 167 43 117 q 0 274 0 217 q 22 381 0 331 q 80 468 43 431 q 167 527 117 506 q 274 549 217 549 l 918 549 l 918 381 l 274 381 q 198 349 229 381 q 167 274 167 318 q 198 198 167 229 q 274 167 229 167 l 918 167 l 918 0 z "},"è":{"ha":983,"x_min":0,"x_max":929,"o":"m 918 167 l 918 0 l 274 0 q 167 22 217 0 q 80 81 117 43 q 22 167 43 118 q 0 274 0 217 q 22 381 0 331 q 80 468 43 431 q 167 527 117 506 q 274 549 217 549 q 546 548 411 549 q 817 547 681 547 q 878 529 851 547 q 917 484 904 511 q 927 425 929 457 q 904 367 925 393 l 743 167 l 918 167 m 274 385 q 232 376 251 385 q 198 351 213 367 q 175 316 183 336 q 167 274 167 296 q 198 198 167 229 q 274 167 229 167 l 538 167 l 547 181 l 711 385 l 274 385 m 292 769 l 458 769 l 553 618 l 386 618 l 292 769 z "},"é":{"ha":983,"x_min":0,"x_max":932,"o":"m 918 167 l 918 0 l 274 0 q 167 22 217 0 q 80 81 117 43 q 22 167 43 118 q 0 274 0 217 q 22 381 0 331 q 80 468 43 431 q 167 527 117 506 q 274 549 217 549 q 546 548 411 549 q 817 547 681 547 q 876 531 849 547 q 899 511 889 522 q 917 485 910 500 q 928 424 932 453 q 904 367 924 393 l 743 167 l 918 167 m 274 385 q 232 376 251 385 q 198 351 213 367 q 175 316 183 336 q 167 274 167 296 q 198 198 167 229 q 274 167 229 167 l 538 167 l 711 385 l 274 385 m 549 618 l 381 618 l 475 769 l 643 769 l 549 618 z "},"ê":{"ha":983,"x_min":0,"x_max":931,"o":"m 918 167 l 918 0 l 274 0 q 167 22 217 0 q 80 80 117 43 q 22 167 43 117 q 0 274 0 217 q 22 381 0 331 q 80 468 43 431 q 167 527 117 506 q 274 549 217 549 q 546 548 411 549 q 817 547 681 547 q 878 529 851 547 q 917 484 904 511 q 928 425 931 457 q 904 367 925 393 l 743 167 l 918 167 m 464 703 l 411 618 l 244 618 l 339 769 l 589 769 l 683 618 l 517 618 l 464 703 m 711 385 l 274 385 q 232 376 251 385 q 198 351 213 367 q 175 316 183 336 q 167 274 167 296 q 198 198 167 229 q 274 167 229 167 l 538 167 q 547 181 542 175 l 711 385 z "},"ë":{"ha":983,"x_min":0,"x_max":929,"o":"m 918 167 l 918 0 l 274 0 q 167 22 217 0 q 80 81 117 43 q 22 167 43 118 q 0 274 0 217 q 22 381 0 331 q 80 468 43 431 q 167 527 117 506 q 274 549 217 549 q 546 548 411 549 q 817 547 681 547 q 878 529 851 547 q 917 484 904 511 q 927 425 929 457 q 904 367 925 393 l 743 167 l 918 167 m 685 618 l 518 618 l 518 715 l 685 715 l 685 618 m 711 385 l 274 385 q 232 376 251 385 q 198 351 213 367 q 175 316 183 336 q 167 274 167 296 q 198 198 167 229 q 274 167 229 167 l 538 167 q 547 181 542 175 l 711 385 m 411 618 l 243 618 l 243 715 l 411 715 l 411 618 z "},"ì":{"ha":303,"x_min":0,"x_max":261,"o":"m 89 549 l 257 549 l 257 0 l 89 0 l 89 549 m 0 769 l 167 769 l 261 618 l 94 618 l 0 769 z "},"í":{"ha":282,"x_min":0,"x_max":261,"o":"m 167 618 l 0 618 l 94 769 l 261 769 l 167 618 m 0 549 l 167 549 l 167 0 l 0 0 l 0 549 z "},"î":{"ha":450,"x_min":0,"x_max":439,"o":"m 136 549 l 303 549 l 303 0 l 136 0 l 136 549 m 219 703 l 167 618 l 0 618 l 94 769 l 178 769 l 261 769 l 344 769 l 439 618 l 272 618 l 219 703 z "},"ï":{"ha":460,"x_min":0,"x_max":442,"o":"m 138 549 l 304 549 l 304 0 l 138 0 l 138 549 m 442 618 l 274 618 l 274 715 l 442 715 l 442 618 m 167 618 l 0 618 l 0 715 l 167 715 l 167 618 z "},"ñ":{"ha":997,"x_min":0,"x_max":918,"o":"m 274 549 l 644 549 q 750 527 700 549 q 838 468 800 506 q 897 381 875 431 q 918 274 918 331 l 918 0 l 751 0 l 751 274 q 720 349 751 318 q 644 381 689 381 l 274 381 q 198 349 229 381 q 167 274 167 318 l 167 0 l 0 0 l 0 274 q 22 381 0 331 q 80 468 43 431 q 167 527 117 506 q 274 549 217 549 m 807 621 l 736 607 q 718 631 733 622 q 679 642 703 639 q 626 643 656 644 q 565 638 596 642 q 469 622 517 631 q 374 603 422 613 q 283 594 326 593 q 204 610 239 596 q 145 655 169 625 q 111 732 121 685 l 181 746 q 199 722 183 731 q 239 710 215 714 q 292 708 263 707 q 353 714 322 710 q 449 731 401 721 q 544 750 496 740 q 635 758 592 760 q 714 742 679 757 q 773 697 749 726 q 807 621 797 668 z "},"ò":{"ha":1069,"x_min":0,"x_max":1008,"o":"m 274 0 q 167 22 217 0 q 80 81 117 43 q 22 167 43 118 q 0 274 0 217 q 22 381 0 331 q 80 468 43 431 q 167 527 117 506 q 274 549 217 549 l 733 549 q 840 527 790 549 q 928 468 890 506 q 987 381 965 431 q 1008 274 1008 331 q 987 167 1008 217 q 928 80 965 117 q 840 22 890 43 q 733 0 790 0 l 274 0 m 274 381 q 198 349 229 381 q 167 274 167 318 q 198 198 167 229 q 274 167 229 167 l 733 167 q 809 198 778 167 q 840 274 840 229 q 809 349 840 318 q 733 381 778 381 l 274 381 m 297 769 l 464 769 l 558 618 l 392 618 l 297 769 z "},"ó":{"ha":1069,"x_min":0,"x_max":1008,"o":"m 274 0 q 167 22 217 0 q 80 81 117 43 q 22 167 43 118 q 0 274 0 217 q 22 381 0 331 q 80 468 43 431 q 167 527 117 506 q 274 549 217 549 l 733 549 q 840 527 790 549 q 928 468 890 506 q 987 381 965 431 q 1008 274 1008 331 q 987 167 1008 217 q 928 80 965 117 q 840 22 890 43 q 733 0 790 0 l 274 0 m 274 381 q 198 349 229 381 q 167 274 167 318 q 198 198 167 229 q 274 167 229 167 l 733 167 q 809 198 778 167 q 840 274 840 229 q 809 349 840 318 q 733 381 778 381 l 274 381 m 554 618 l 386 618 l 481 769 l 649 769 l 554 618 z "},"ô":{"ha":1069,"x_min":0,"x_max":1008,"o":"m 274 0 q 167 22 217 0 q 80 81 117 43 q 22 167 43 118 q 0 274 0 217 q 22 381 0 331 q 80 468 43 431 q 167 527 117 506 q 274 549 217 549 l 733 549 q 840 527 790 549 q 928 468 890 506 q 987 381 965 431 q 1008 274 1008 331 q 987 167 1008 217 q 928 80 965 117 q 840 22 890 43 q 733 0 790 0 l 274 0 m 504 703 l 451 618 l 283 618 l 378 769 l 629 769 l 724 618 l 557 618 l 504 703 m 274 381 q 198 349 229 381 q 167 274 167 318 q 198 198 167 229 q 274 167 229 167 l 733 167 q 809 198 778 167 q 840 274 840 229 q 809 349 840 318 q 733 381 778 381 l 274 381 z "},"õ":{"ha":1069,"x_min":0,"x_max":1008,"o":"m 274 0 q 167 22 217 0 q 80 81 117 43 q 22 167 43 118 q 0 274 0 217 q 22 381 0 331 q 80 468 43 431 q 167 527 117 506 q 274 549 217 549 l 733 549 q 840 527 790 549 q 928 468 890 506 q 987 381 965 431 q 1008 274 1008 331 q 987 167 1008 217 q 928 80 965 117 q 840 22 890 43 q 733 0 790 0 l 274 0 m 274 381 q 198 349 229 381 q 167 274 167 318 q 198 198 167 229 q 274 167 229 167 l 733 167 q 809 198 778 167 q 840 274 840 229 q 809 349 840 318 q 733 381 778 381 l 274 381 m 782 607 q 763 631 779 622 q 724 642 747 639 q 670 643 700 644 q 610 638 640 642 q 514 622 561 631 q 418 603 467 613 q 328 594 371 593 q 249 610 285 596 q 190 655 214 625 q 157 732 165 685 l 226 746 q 244 722 229 731 q 283 710 260 714 q 337 708 307 707 q 397 714 367 710 q 494 731 446 721 q 589 750 542 740 q 680 758 636 760 q 758 742 724 757 q 817 697 793 726 q 851 621 842 668 l 782 607 z "},"ö":{"ha":1069,"x_min":0,"x_max":1008,"o":"m 274 0 q 167 22 217 0 q 80 81 117 43 q 22 167 43 118 q 0 274 0 217 q 22 381 0 331 q 80 468 43 431 q 167 527 117 506 q 274 549 217 549 l 733 549 q 840 527 790 549 q 928 468 890 506 q 987 381 965 431 q 1008 274 1008 331 q 987 167 1008 217 q 928 80 965 117 q 840 22 890 43 q 733 0 790 0 l 274 0 m 718 618 l 550 618 l 550 715 l 718 715 l 718 618 m 443 618 l 276 618 l 276 715 l 443 715 l 443 618 m 274 381 q 198 349 229 381 q 167 274 167 318 q 198 198 167 229 q 274 167 229 167 l 733 167 q 809 198 778 167 q 840 274 840 229 q 809 349 840 318 q 733 381 778 381 l 274 381 z "},"ù":{"ha":897,"x_min":0,"x_max":840,"o":"m 274 0 q 167 22 217 0 q 80 80 117 43 q 22 167 43 117 q 0 274 0 217 l 0 549 l 167 549 l 167 274 q 198 198 167 229 q 274 167 229 167 l 567 167 q 642 198 611 167 q 672 274 672 229 l 672 549 l 840 549 l 840 274 q 819 167 840 217 q 760 80 797 117 q 672 22 722 43 q 567 0 622 0 l 274 0 m 217 769 l 385 769 l 479 618 l 311 618 l 217 769 z "},"ú":{"ha":897,"x_min":0,"x_max":840,"o":"m 274 0 q 167 22 217 0 q 80 80 117 43 q 22 167 43 117 q 0 274 0 217 l 0 549 l 167 549 l 167 274 q 198 198 167 229 q 274 167 229 167 l 567 167 q 642 198 611 167 q 672 274 672 229 l 672 549 l 840 549 l 840 274 q 819 167 840 217 q 760 80 797 117 q 672 22 722 43 q 567 0 622 0 l 274 0 m 474 618 l 307 618 l 401 769 l 568 769 l 474 618 z "},"û":{"ha":897,"x_min":0,"x_max":840,"o":"m 274 0 q 167 22 217 0 q 80 80 117 43 q 22 167 43 117 q 0 274 0 217 l 0 549 l 167 549 l 167 274 q 198 198 167 229 q 274 167 229 167 l 567 167 q 642 198 611 167 q 672 274 672 229 l 672 549 l 840 549 l 840 274 q 819 167 840 217 q 760 80 797 117 q 672 22 722 43 q 567 0 622 0 l 274 0 m 419 703 l 368 618 l 200 618 l 294 769 l 546 769 l 640 618 l 472 618 l 419 703 z "},"ü":{"ha":897,"x_min":0,"x_max":840,"o":"m 274 0 q 167 22 217 0 q 80 80 117 43 q 22 167 43 117 q 0 274 0 217 l 0 549 l 167 549 l 167 274 q 198 198 167 229 q 274 167 229 167 l 567 167 q 642 198 611 167 q 672 274 672 229 l 672 549 l 840 549 l 840 274 q 819 167 840 217 q 760 80 797 117 q 672 22 722 43 q 567 0 622 0 l 274 0 m 633 618 l 467 618 l 467 715 l 633 715 l 633 618 m 360 618 l 192 618 l 192 715 l 360 715 l 360 618 z "},"ÿ":{"ha":1028,"x_min":0,"x_max":1007,"o":"m 382 -199 l 492 -11 l 451 -11 q 342 18 392 -11 q 261 99 292 47 l 0 549 l 190 549 l 404 182 q 451 154 419 154 l 588 154 l 817 549 l 1007 549 l 572 -199 l 382 -199 m 725 618 l 557 618 l 557 715 l 725 715 l 725 618 m 450 618 l 283 618 l 283 715 l 450 715 l 450 618 z "},"ý":{"ha":1028,"x_min":0,"x_max":1007,"o":"m 571 618 l 403 618 l 497 769 l 664 769 l 571 618 m 382 -199 l 492 -11 l 451 -11 q 342 18 392 -11 q 261 99 292 47 l 0 549 l 190 549 l 404 182 q 451 154 419 154 l 588 154 l 817 549 l 1007 549 l 572 -199 l 382 -199 z "},"ø":{"ha":1049,"x_min":0,"x_max":1008,"o":"m 274 0 q 167 22 217 0 q 80 81 117 43 q 22 167 43 118 q 0 274 0 217 q 22 381 0 331 q 80 468 43 431 q 167 527 117 506 q 274 549 217 549 l 733 549 q 840 527 790 549 q 928 468 890 506 q 987 381 965 431 q 1008 274 1008 331 q 987 167 1008 217 q 928 80 965 117 q 840 22 890 43 q 733 0 790 0 l 274 0 m 354 167 l 486 381 l 274 381 q 198 349 229 381 q 167 274 167 318 q 198 198 167 229 q 274 167 229 167 l 354 167 m 654 381 l 606 304 l 521 167 l 733 167 q 809 198 778 167 q 840 274 840 229 q 809 349 840 318 q 733 381 778 381 l 654 381 z "},"Ø":{"ha":1360,"x_min":0,"x_max":1329,"o":"m 381 0 q 233 30 301 0 q 112 112 164 60 q 30 233 60 164 q 0 381 0 301 q 30 529 0 460 q 112 650 60 599 q 233 731 164 701 q 381 761 301 761 l 949 761 q 1097 731 1028 761 q 1218 650 1167 701 q 1299 529 1269 599 q 1329 381 1329 460 q 1299 233 1329 301 q 1218 112 1269 164 q 1097 30 1167 60 q 949 0 1028 0 l 381 0 m 449 167 l 714 594 l 381 594 q 297 578 336 594 q 229 532 258 561 q 183 464 200 503 q 167 381 167 425 q 183 297 167 336 q 229 229 200 258 q 297 183 258 200 q 381 167 336 167 l 449 167 m 881 594 l 696 296 l 615 167 l 949 167 q 1032 183 993 167 q 1100 229 1071 200 q 1146 297 1129 258 q 1163 381 1163 336 q 1146 464 1163 425 q 1100 532 1129 503 q 1032 578 1071 561 q 949 594 993 594 l 881 594 z "},"å":{"ha":1026,"x_min":0,"x_max":976,"o":"m 710 0 l 274 0 q 167 22 217 0 q 80 80 117 43 q 22 167 43 117 q 0 274 0 217 q 22 381 0 331 q 80 468 43 431 q 167 527 117 506 q 274 549 217 549 l 703 549 q 810 527 760 549 q 897 468 860 506 q 955 381 933 431 q 976 274 976 331 l 976 0 l 810 0 l 810 274 q 778 349 810 318 q 703 381 747 381 l 274 381 q 198 349 229 381 q 167 274 167 318 q 198 198 167 229 q 274 167 229 167 l 710 167 l 710 0 m 489 974 q 562 959 528 974 q 622 919 596 944 q 662 858 647 893 q 676 785 676 824 q 662 712 676 746 q 622 652 647 678 q 562 612 596 626 q 489 597 528 597 q 415 612 450 597 q 355 652 381 626 q 315 712 329 678 q 300 785 300 746 q 315 858 300 824 q 355 919 329 893 q 415 959 381 944 q 489 974 450 974 m 489 869 q 428 845 453 869 q 403 785 403 821 q 428 724 403 749 q 489 700 453 700 q 549 724 525 700 q 574 785 574 749 q 549 845 574 821 q 489 869 525 869 z "},"Å":{"ha":1160,"x_min":0,"x_max":1078,"o":"m 374 765 q 441 837 397 810 q 539 864 485 864 q 636 837 592 864 q 704 765 681 810 l 804 765 q 911 744 861 765 q 998 685 961 722 q 1056 597 1035 647 q 1078 490 1078 547 l 1078 0 l 911 0 l 911 183 l 167 183 l 167 0 l 0 0 l 0 490 q 22 597 0 547 q 80 685 43 647 q 167 744 117 722 q 274 765 217 765 l 374 765 m 704 765 q 706 762 707 761 q 704 765 706 763 m 713 601 q 710 599 711 599 q 713 601 710 599 m 710 597 q 642 518 688 549 q 539 488 597 488 q 435 518 481 488 q 367 597 390 549 l 274 597 q 198 566 229 597 q 167 490 167 535 l 167 351 l 911 351 l 911 490 q 880 566 911 535 q 804 597 849 597 l 710 597 m 374 765 q 371 762 371 763 q 374 765 371 761 m 539 760 q 478 735 503 760 q 454 675 454 711 q 478 615 454 639 q 539 590 503 590 q 599 615 575 590 q 624 675 624 639 q 599 735 624 711 q 539 760 575 760 z "},"°":{"ha":446,"x_min":1,"x_max":378,"o":"m 189 974 q 263 959 228 974 q 323 919 297 944 q 363 858 349 893 q 378 785 378 824 q 363 712 378 746 q 323 652 349 678 q 263 612 297 626 q 189 597 228 597 q 116 612 150 597 q 56 652 82 626 q 16 712 31 678 q 1 785 1 746 q 16 858 1 824 q 56 919 31 893 q 116 959 82 944 q 189 974 150 974 m 189 869 q 129 845 154 869 q 104 785 104 821 q 129 724 104 749 q 189 700 154 700 q 250 724 225 700 q 275 785 275 749 q 250 845 275 821 q 189 869 225 869 z "},"÷":{"ha":614,"x_min":-4,"x_max":544,"o":"m -4 190 l -4 357 l 67 357 l 186 357 l 353 357 l 503 357 l 544 357 l 544 190 l 507 190 l 353 190 l 186 190 l 71 190 l -4 190 m 353 114 l 353 0 l 186 0 l 186 114 l 353 114 m 186 435 l 186 549 l 353 549 l 353 435 l 186 435 z "},"«":{"ha":942,"x_min":0,"x_max":875,"o":"m 447 0 l 113 189 q 28 272 56 219 q 0 380 0 324 q 28 488 0 436 q 113 571 56 539 l 447 760 l 447 571 l 193 428 q 171 407 178 419 q 164 380 164 394 q 171 353 164 365 q 193 332 178 340 l 447 189 l 447 0 m 875 0 l 540 189 q 456 272 483 219 q 428 380 428 324 q 456 488 428 436 q 540 571 483 539 l 875 760 l 875 571 l 621 428 q 599 407 606 419 q 592 380 592 394 q 599 353 592 365 q 621 332 606 340 l 875 189 l 875 0 z "},"»":{"ha":953,"x_min":1,"x_max":876,"o":"m 429 189 l 683 332 q 705 353 697 340 q 713 380 713 365 q 705 407 713 394 q 683 428 697 419 l 429 571 l 429 760 l 764 571 q 848 488 819 539 q 876 380 876 436 q 848 272 876 324 q 764 189 819 219 l 429 0 l 429 189 m 1 189 l 256 332 q 277 353 269 340 q 285 380 285 365 q 277 407 285 394 q 256 428 269 419 l 1 571 l 1 760 l 336 571 q 420 488 392 539 q 449 380 449 436 q 420 272 449 324 q 336 189 392 219 l 1 0 l 1 189 z "},"µ":{"ha":931,"x_min":0,"x_max":840,"o":"m 274 0 q 167 21 217 0 l 167 -181 l 0 -181 l 0 274 l 0 549 l 167 549 l 167 274 q 198 198 167 229 q 274 167 229 167 l 567 167 q 642 198 611 167 q 672 274 672 229 l 672 549 l 840 549 l 840 274 l 840 -50 l 672 -50 l 672 21 q 567 0 624 0 l 274 0 z "},"¦":{"ha":203,"x_min":0,"x_max":83,"o":"m 83 393 l 0 393 l 0 765 l 83 765 l 83 393 m 83 -232 l 0 -232 l 0 140 l 83 140 l 83 -232 z "}}}
